<svg width="231" height="76" viewBox="0 0 231 76" fill="none" xmlns="http://www.w3.org/2000/svg">
<path d="M223.436 33.1962C222.945 33.0392 210.693 33 204.628 33L204.628 33.1962H203.81H197.063C196.9 33.1962 196.45 33.4578 196.246 33.5886C195.973 33.8502 195.387 34.4911 195.223 34.962C195.06 35.4328 195.155 36.2045 195.223 36.5315V38.4935L193.588 40.4554C193.452 40.8478 193.179 41.7111 193.179 42.025V43.2022H189.704C189.377 43.2022 189.158 43.5946 189.09 43.7908V46.4536V54.1891C189.09 54.5161 189.172 55.2486 189.499 55.5625C189.908 55.9549 190.726 56.3473 191.339 56.3473H192.975V57.7206V58.113C191.952 58.113 189.826 58.1523 189.499 58.3092C189.172 58.4662 189.09 58.8978 189.09 59.094L189.09 60.075V64.5875C189.022 65.5031 188.927 67.4127 189.09 67.7266C189.254 68.0405 189.976 68.5114 190.317 68.7076C190.453 68.773 190.808 68.9038 191.135 68.9038H192.975V70.2772V71.4543C193.043 71.6505 193.22 72.1999 193.383 72.8277C193.547 73.4555 193.997 74.1357 194.201 74.3973L195.837 75.5744C196.491 76.0453 197.336 76.0322 197.677 75.9668H203.196H215.258H223.027C223.64 75.9668 224.458 75.3782 225.071 74.9858C225.685 74.5935 226.707 73.2201 226.911 72.6315C227.116 72.0429 227.116 69.6886 227.116 69.1C227.116 68.6291 227.252 68.6422 227.32 68.7076C227.865 68.7076 229.16 68.6291 229.978 68.3152C230.796 68.0013 231 67.2688 231 66.9418V59.094C231 58.6231 230.455 58.2438 230.182 58.113H227.32V56.3473C227.729 56.3473 228.792 56.308 229.773 56.1511C230.755 55.9941 231 55.1701 231 54.7777V44.1831C231 43.7123 230.591 43.333 230.387 43.2022H227.116C227.184 42.5482 227.279 41.1617 227.116 40.8478C226.952 40.5339 226.093 39.4091 225.685 38.8859C225.412 38.6897 224.867 38.1796 224.867 37.7087V34.1772C224.594 33.9156 223.926 33.3532 223.436 33.1962Z" fill="#6C7D59"/>
<path d="M198.406 49.3077C197.453 48.5692 197.082 46.3333 197.016 45.3077C196.95 46.1282 197.056 48.2615 198.008 50.2308C198.961 52.2 200.655 52.6923 201.383 52.6923L211.111 53C214.287 53 220.958 52.9385 222.228 52.6923C223.816 52.3846 224.809 49.9231 225.404 48.6923C225.881 47.7077 226 45.8205 226 45C225.868 45.4103 225.563 46.4154 225.404 47.1538C225.246 47.8923 223.882 49.7179 223.221 50.5385L220.64 51.1538H204.758H200.986C200.523 50.8462 199.358 50.0462 198.406 49.3077Z" fill="#5A6847"/>
<path d="M197.406 70.7692C196.453 70.1231 196.082 68.1667 196.016 67.2692C195.95 67.9872 196.056 69.8538 197.008 71.5769C197.961 73.3 199.655 73.7308 200.383 73.7308L210.111 74C213.287 74 219.958 73.9462 221.228 73.7308C222.816 73.4615 223.809 71.3077 224.404 70.2308C224.881 69.3692 225 67.7179 225 67C224.868 67.359 224.563 68.2385 224.404 68.8846C224.246 69.5308 222.882 71.1282 222.221 71.8462L219.64 72.3846H203.758H199.986C199.523 72.1154 198.358 71.4154 197.406 70.7692Z" fill="#5A6847"/>
<path d="M197 42.4L197.199 34.8V34.7562V34.7123V34.6247V34.6V34.4C197.199 34.08 198.39 33.3333 198.986 33C207.064 33.0667 223.458 33.24 224.411 33.4C225.364 33.56 225.868 34.6667 226 35.2V36.8V45.2V47C225.801 47.5333 225.245 48.8 224.61 49.6C223.974 50.4 222.358 50.8667 221.63 51H203.158L199.781 50.6C199.185 50.0667 197.914 48.88 197.596 48.4C197.278 47.92 197.199 47.1333 197.199 46.8L197 42.4Z" fill="#688F72"/>
<path d="M198.458 62.8909L196.804 61.0775C195.977 59.8444 195.701 56.5742 196.391 56H223.469C226.983 56 225.742 56.9067 225.949 59.6268C226.114 61.8028 222.78 63.4953 220.988 63.9789C217.474 63.9184 209.289 63.8338 206.312 63.9789C203.336 64.124 199.973 63.4953 198.458 62.8909Z" fill="#688F72"/>
<path d="M198.34 71.3542C197.195 70.3773 196.363 68.3692 196.09 67.4872C196.022 64.5701 195.927 58.4508 196.09 57.311C196.254 56.1713 196.84 56.0221 197.113 56.0899C205.771 56.0221 223.413 55.9271 224.722 56.0899C226.031 56.2527 226.085 58.8714 225.949 60.1604V66.2661L225.131 69.3189C224.967 69.8074 223.972 70.8793 223.495 71.3542C222.881 71.8291 221.368 72.901 220.223 73.3894C219.077 73.8779 217.837 73.8643 217.36 73.7965L204.066 74L201.612 73.3894C200.999 73.1181 199.485 72.3311 198.34 71.3542Z" fill="#688F72"/>
<path d="M206.063 32.5714C205.568 33.3333 205.72 33.6825 205.857 33.7619L205.857 34H204V33.5238C204 33.2857 204.619 31.381 205.444 30.1905C206.105 29.2381 207.095 29 207.508 29H211.016H213.698C215.019 29 216.312 31.381 216.794 32.5714L217 33.7619H215.349C215.28 33.4444 215.06 32.6667 214.73 32.0952C214.4 31.5238 213.63 31.0635 213.286 30.9048H211.429H207.714C207.37 31.1429 206.559 31.8095 206.063 32.5714Z" fill="#6B5A50"/>
<path d="M197.968 64.3776C197.221 63.6389 197 62.8825 197 62.5C197.209 62.9487 197.577 63.6873 197.968 64.3776C198.306 64.7119 198.752 65.0426 199.333 65.3333C201.2 66.2667 203.87 66.3889 204.972 66.3333H219.75C220.593 66.2222 222.472 65.8 223.25 65C223.651 64.5876 224.035 63.9802 224.348 63.3972L225 62C224.874 62.323 224.642 62.8493 224.348 63.3972L223.444 65.3333C223.056 65.8889 221.928 67 220.528 67H201.472C200.889 66.8889 199.567 66.5 198.944 65.8333C198.657 65.5256 198.304 64.9694 197.968 64.3776Z" fill="#647E57"/>
<path d="M203 68.1325V33H205V33.2169V48.2798V65.3133V68.5663L204.667 68.7831L204.333 69C204.111 69 203.6 68.9566 203.333 68.7831C203.067 68.6096 203 68.2771 203 68.1325Z" fill="#7C635E"/>
<path d="M204 69V33.2169H203.75L203 33L203.25 45.3614V57.7229V65.747V67.9157C203.25 68.6096 203.75 68.9277 204 69Z" fill="#6D564E"/>
<path d="M205 69V34.2108H205.25L206 34L205.75 46.0181V58.0361V65.8373V67.9458C205.75 68.6205 205.25 68.9297 205 69Z" fill="#6D564E"/>
<path d="M215 68.1325V33H218V33.2169V48.2798V65.3133V68.5663L217.5 68.7831L217 69C216.667 69 215.9 68.9566 215.5 68.7831C215.1 68.6096 215 68.2771 215 68.1325Z" fill="#7C635E"/>
<path d="M216 69V33.2169H215.75L215 33L215.25 45.3614V57.7229V65.747V67.9157C215.25 68.6096 215.75 68.9277 216 69Z" fill="#6D564E"/>
<path d="M218 69V34.2108H218.25L219 34L218.75 46.0181V58.0361V65.8373V67.9458C218.75 68.6205 218.25 68.9297 218 69Z" fill="#6D564E"/>
</svg>
