<svg width="411" height="282" viewBox="0 0 411 282" fill="none" xmlns="http://www.w3.org/2000/svg">
<path d="M-14.3494 124.118L-86.3805 7.2402L-90.4674 0L-92 7.2402V336.152L-86.3805 406.485L-67.4788 422H-7.70821L163.941 406.485H443.381L449 273.059L426.522 238.926L332.013 223.412L225.244 238.926L103.659 209.966L-14.3494 124.118Z" fill="#B1D386"/>
<path d="M-14.3494 124.118L-86.3805 7.2402L-90.4674 0L-92 7.2402V336.152L-86.3805 406.485L-67.4788 422H-7.70821L163.941 406.485H443.381L449 273.059L426.522 238.926L332.013 223.412L225.244 238.926L103.659 209.966L-14.3494 124.118Z" fill="#B1D386"/>
<path d="M-14.3494 124.118L-86.3805 7.2402L-90.4674 0L-92 7.2402V336.152L-86.3805 406.485L-67.4788 422H-7.70821L163.941 406.485H443.381L449 273.059L426.522 238.926L332.013 223.412L225.244 238.926L103.659 209.966L-14.3494 124.118Z" fill="#B1D386"/>
<path d="M-14.3494 124.118L-86.3805 7.2402L-90.4674 0L-92 7.2402V336.152L-86.3805 406.485L-67.4788 422H-7.70821L163.941 406.485H443.381L449 273.059L426.522 238.926L332.013 223.412L225.244 238.926L103.659 209.966L-14.3494 124.118Z" fill="#B1D386"/>
<path d="M-14.3494 124.118L-86.3805 7.2402L-90.4674 0L-92 7.2402V336.152L-86.3805 406.485L-67.4788 422H-7.70821L163.941 406.485H443.381L449 273.059L426.522 238.926L332.013 223.412L225.244 238.926L103.659 209.966L-14.3494 124.118Z" fill="#8C6F3F"/>
</svg>
