<svg width="411" height="260" viewBox="0 0 411 260" fill="none" xmlns="http://www.w3.org/2000/svg">
<path d="M-14.3494 151.471L-86.3805 253.669L-90.4674 260L-92 253.669V-33.9338L-86.3805 -95.4338L-67.4788 -109H-7.70821L163.941 -95.4338H443.381L449 21.2353L426.522 51.0809L332.013 64.647L225.244 51.0809L103.659 76.4044L-14.3494 151.471Z" fill="#B1D386"/>
<path d="M-14.3494 151.471L-86.3805 253.669L-90.4674 260L-92 253.669V-33.9338L-86.3805 -95.4338L-67.4788 -109H-7.70821L163.941 -95.4338H443.381L449 21.2353L426.522 51.0809L332.013 64.647L225.244 51.0809L103.659 76.4044L-14.3494 151.471Z" fill="#B1D386"/>
<path d="M-14.3494 151.471L-86.3805 253.669L-90.4674 260L-92 253.669V-33.9338L-86.3805 -95.4338L-67.4788 -109H-7.70821L163.941 -95.4338H443.381L449 21.2353L426.522 51.0809L332.013 64.647L225.244 51.0809L103.659 76.4044L-14.3494 151.471Z" fill="#B1D386"/>
<path d="M-14.3494 151.471L-86.3805 253.669L-90.4674 260L-92 253.669V-33.9338L-86.3805 -95.4338L-67.4788 -109H-7.70821L163.941 -95.4338H443.381L449 21.2353L426.522 51.0809L332.013 64.647L225.244 51.0809L103.659 76.4044L-14.3494 151.471Z" fill="#B1D386"/>
<path d="M-14.3494 151.471L-86.3805 253.669L-90.4674 260L-92 253.669V-33.9338L-86.3805 -95.4338L-67.4788 -109H-7.70821L163.941 -95.4338H443.381L449 21.2353L426.522 51.0809L332.013 64.647L225.244 51.0809L103.659 76.4044L-14.3494 151.471Z" fill="#8C6F3F"/>
</svg>
